<?xml version="1.0" encoding="UTF-8" standalone="no"?>
<!-- Created with Inkscape (http://www.inkscape.org/) -->

<svg
   xmlns:dc="http://purl.org/dc/elements/1.1/"
   xmlns:cc="http://creativecommons.org/ns#"
   xmlns:rdf="http://www.w3.org/1999/02/22-rdf-syntax-ns#"
   xmlns:svg="http://www.w3.org/2000/svg"
   xmlns="http://www.w3.org/2000/svg"
   xmlns:sodipodi="http://sodipodi.sourceforge.net/DTD/sodipodi-0.dtd"
   xmlns:inkscape="http://www.inkscape.org/namespaces/inkscape"
   width="63.895111mm"
   height="76.34111mm"
   viewBox="0 0 226.4 270.5"
   id="svg5110"
   version="1.1"
   inkscape:version="0.91 r13725"
   sodipodi:docname="logo.svg">
  <defs
     id="defs5112" />
  <sodipodi:namedview
     id="base"
     pagecolor="#ffffff"
     bordercolor="#666666"
     borderopacity="1.0"
     inkscape:pageopacity="0.0"
     inkscape:pageshadow="2"
     inkscape:zoom="0.35"
     inkscape:cx="-143.22857"
     inkscape:cy="509.53572"
     inkscape:document-units="px"
     inkscape:current-layer="layer1"
     showgrid="false"
     fit-margin-top="0"
     fit-margin-left="0"
     fit-margin-right="0"
     fit-margin-bottom="0"
     inkscape:window-width="2560"
     inkscape:window-height="1056"
     inkscape:window-x="0"
     inkscape:window-y="24"
     inkscape:window-maximized="1" />
  <metadata
     id="metadata5115">
    <rdf:RDF>
      <cc:Work
         rdf:about="">
        <dc:format>image/svg+xml</dc:format>
        <dc:type
           rdf:resource="http://purl.org/dc/dcmitype/StillImage" />
        <dc:title></dc:title>
      </cc:Work>
    </rdf:RDF>
  </metadata>
  <g
     inkscape:label="Layer 1"
     inkscape:groupmode="layer"
     id="layer1"
     transform="translate(-518.22857,-771.39792)">
    <g
       transform="translate(68.028571,222.89792)"
       id="g251">
      <g
         id="g253">
        <path
           style="fill:#ffffff"
           inkscape:connector-curvature="0"
           id="path255"
           d="m 641.7,641.7 c -4.2,-60.9 -80.8,-59.3 -80.8,-59.3 0,0 -76.6,-1.6 -80.8,59.3 -4.2,60.9 42.1,66.1 42.1,98.9 0,32.8 0,33.3 0,33.3 l 38.8,-7.9 38.6,7.8 c 0,0 0,-0.5 0,-33.3 0,-32.8 46.3,-37.9 42.1,-98.8 z" />
        <path
           style="fill:#231f20"
           inkscape:connector-curvature="0"
           id="path257"
           d="m 521.2,775.2 0,-34.6 c 0,-13.2 -7.7,-21.8 -16.7,-31.7 -13.1,-14.6 -27.9,-31.1 -25.5,-67.2 4,-58.6 73.4,-60.3 81.3,-60.3 0.3,0 0.5,0 0.5,0 0,0 0.2,0 0.5,0 7.9,0 77.3,1.7 81.3,60.3 2.5,36.1 -12.4,52.6 -25.5,67.2 -9,10 -16.7,18.6 -16.7,31.7 l 0,34.6 -39.7,-8 -39.5,8 z m 39.8,-10.3 37.5,7.6 0,-32 c 0,-14 8,-22.9 17.2,-33.2 12.8,-14.2 27.3,-30.4 24.9,-65.6 -3.9,-56.7 -71.5,-58.3 -79.2,-58.3 l -0.5,0 -0.6,0 c -7.7,0 -75.3,1.6 -79.2,58.3 -2.4,35.2 12.1,51.3 24.9,65.6 9.3,10.3 17.2,19.2 17.2,33.2 l 0,32 37.8,-7.6 z" />
      </g>
      <g
         id="g259">
        <g
           id="g261">
          <path
             style="fill:#ffffff"
             inkscape:connector-curvature="0"
             id="path263"
             d="m 522.3,757.2 77.3,0 c 0,-4.3 0,-9.8 0,-16.7 0,-32.8 46.3,-38 42.1,-98.9 -4.2,-60.9 -80.8,-59.3 -80.8,-59.3 0,0 -76.6,-1.6 -80.8,59.3 -4.2,60.9 42.1,66.1 42.1,98.9 0.1,6.9 0.1,12.4 0.1,16.7 z" />
          <path
             style="fill:#231f20"
             inkscape:connector-curvature="0"
             id="path265"
             d="m 600.7,758.3 -79.4,0 0,-17.7 c 0,-13.2 -7.7,-21.8 -16.7,-31.7 -13.1,-14.6 -27.9,-31.1 -25.5,-67.2 4,-58.6 73.4,-60.3 81.3,-60.3 0.3,0 0.5,0 0.5,0 0,0 0.2,0 0.5,0 7.9,0 77.3,1.7 81.3,60.3 2.5,36.1 -12.4,52.6 -25.5,67.2 -9,10 -16.7,18.6 -16.7,31.7 l 0,17.7 z m -77.3,-2.2 75.1,0 0,-15.6 c 0,-14 8,-22.9 17.2,-33.2 12.8,-14.2 27.3,-30.4 24.9,-65.6 -3.9,-56.7 -71.5,-58.3 -79.2,-58.3 l -0.5,0 -0.6,0 c -7.7,0 -75.3,1.6 -79.2,58.3 -2.4,35.2 12.1,51.3 24.9,65.6 9.3,10.3 17.2,19.2 17.2,33.2 l 0,15.6 z" />
        </g>
        <path
           style="fill:#f8da87"
           inkscape:connector-curvature="0"
           id="path267"
           d="m 528.8,750.7 0,-10.2 c 0,-16.1 -9,-26.1 -18.6,-36.8 -12.7,-14.1 -25.8,-28.7 -23.5,-61.6 3.5,-51.8 66.6,-53.3 73.8,-53.3 l 1.1,0 c 7.2,0 70.2,1.5 73.8,53.3 2.3,32.9 -10.9,47.5 -23.5,61.6 -9.6,10.7 -18.6,20.7 -18.6,36.8 l 0,10.2 -64.5,0 z" />
      </g>
      <g
         id="g269">
        <g
           id="g271">
          <g
             id="g273">
            <polygon
               style="fill:#231f20"
               id="polygon275"
               points="561.5,759.2 561.5,761.4 544.3,761.4 532.1,708.9 534.2,708.4 546,759.2 " />
          </g>
          <g
             id="g277">
            <polygon
               style="fill:#231f20"
               id="polygon279"
               points="589.8,708.9 577.6,761.4 560.4,761.4 560.4,759.2 575.9,759.2 587.7,708.4 " />
          </g>
        </g>
        <g
           id="g281">
          <g
             id="g283">
            <path
               style="fill:#ffffff"
               inkscape:connector-curvature="0"
               id="path285"
               d="m 603.6,765 c 0,2 -1.6,3.6 -3.6,3.6 l -78.1,0 c -2,0 -3.6,-1.6 -3.6,-3.6 l 0,-4.2 c 0,-2 1.6,-3.6 3.6,-3.6 l 78.1,0 c 2,0 3.6,1.6 3.6,3.6 l 0,4.2 z" />
            <path
               style="fill:#231f20"
               inkscape:connector-curvature="0"
               id="path287"
               d="m 600,769.7 -78.1,0 c -2.6,0 -4.7,-2.1 -4.7,-4.7 l 0,-4.2 c 0,-2.6 2.1,-4.7 4.7,-4.7 l 78.1,0 c 2.6,0 4.7,2.1 4.7,4.7 l 0,4.2 c 0,2.6 -2.1,4.7 -4.7,4.7 z m -78.1,-11.4 c -1.4,0 -2.5,1.1 -2.5,2.5 l 0,4.2 c 0,1.4 1.1,2.5 2.5,2.5 l 78.1,0 c 1.4,0 2.5,-1.1 2.5,-2.5 l 0,-4.2 c 0,-1.4 -1.1,-2.5 -2.5,-2.5 l -78.1,0 z" />
          </g>
          <g
             id="g289">
            <path
               style="fill:#ffffff"
               inkscape:connector-curvature="0"
               id="path291"
               d="m 603.6,787.4 c 0,2 -1.6,3.6 -3.6,3.6 l -78.1,0 c -2,0 -3.6,-1.6 -3.6,-3.6 l 0,-4.2 c 0,-2 1.6,-3.6 3.6,-3.6 l 78.1,0 c 2,0 3.6,1.6 3.6,3.6 l 0,4.2 z" />
            <path
               style="fill:#231f20"
               inkscape:connector-curvature="0"
               id="path293"
               d="m 600,792.1 -78.1,0 c -2.6,0 -4.7,-2.1 -4.7,-4.7 l 0,-4.2 c 0,-2.6 2.1,-4.7 4.7,-4.7 l 78.1,0 c 2.6,0 4.7,2.1 4.7,4.7 l 0,4.2 c 0,2.6 -2.1,4.7 -4.7,4.7 z m -78.1,-11.4 c -1.4,0 -2.5,1.1 -2.5,2.5 l 0,4.2 c 0,1.4 1.1,2.5 2.5,2.5 l 78.1,0 c 1.4,0 2.5,-1.1 2.5,-2.5 l 0,-4.2 c 0,-1.4 -1.1,-2.5 -2.5,-2.5 l -78.1,0 z" />
          </g>
          <path
             style="fill:#231f20"
             inkscape:connector-curvature="0"
             id="path295"
             d="m 575.2,807.9 -28.4,0 c -0.7,0 -1.3,1.6 -1.3,3.5 l 0,4.1 c 0,1.9 0.6,3.5 1.3,3.5 l 4.8,0 0,-2.1 c 0,-1.9 0.4,-3.5 0.8,-3.5 l 17.2,0 c 0.4,0 0.8,1.6 0.8,3.5 l 0,2.1 4.8,0 c 0.7,0 1.3,-1.6 1.3,-3.5 l 0,-4.1 c 0,-1.9 -0.6,-3.5 -1.3,-3.5 z" />
          <g
             id="g297">
            <path
               style="fill:#8bc4eb"
               inkscape:connector-curvature="0"
               id="path299"
               d="m 588,803.9 c 0,3.4 -1,6.1 -2.3,6.1 l -49.5,0 c -1.3,0 -2.3,-2.7 -2.3,-6.1 l 0,-7.1 c 0,-3.4 1,-6.1 2.3,-6.1 l 49.5,0 c 1.3,0 2.3,2.7 2.3,6.1 l 0,7.1 z" />
            <path
               style="fill:#231f20"
               inkscape:connector-curvature="0"
               id="path301"
               d="m 585.7,811.1 -49.5,0 c -2.3,0 -3.4,-3.7 -3.4,-7.2 l 0,-7.1 c 0,-3.4 1.1,-7.2 3.4,-7.2 l 49.5,0 c 2.3,0 3.4,3.7 3.4,7.2 l 0,7.1 c 0,3.5 -1.1,7.2 -3.4,7.2 z m 0,-19.3 -49.5,0 c -0.3,0.2 -1.2,1.9 -1.2,5 l 0,7.1 c 0,3.1 0.9,4.8 1.3,5 l 49.4,0 c 0.4,-0.2 1.2,-1.9 1.2,-5 l 0,-7.1 c 0,-3.1 -0.9,-4.8 -1.2,-5 z" />
          </g>
          <g
             id="g303">
            <path
               style="fill:#ffffff"
               inkscape:connector-curvature="0"
               id="path305"
               d="m 603.6,798.6 c 0,2 -1.6,3.6 -3.6,3.6 l -78.1,0 c -2,0 -3.6,-1.6 -3.6,-3.6 l 0,-4.2 c 0,-2 1.6,-3.6 3.6,-3.6 l 78.1,0 c 2,0 3.6,1.6 3.6,3.6 l 0,4.2 z" />
            <path
               style="fill:#231f20"
               inkscape:connector-curvature="0"
               id="path307"
               d="m 600,803.3 -78.1,0 c -2.6,0 -4.7,-2.1 -4.7,-4.7 l 0,-4.2 c 0,-2.6 2.1,-4.7 4.7,-4.7 l 78.1,0 c 2.6,0 4.7,2.1 4.7,4.7 l 0,4.2 c 0,2.6 -2.1,4.7 -4.7,4.7 z m -78.1,-11.5 c -1.4,0 -2.5,1.1 -2.5,2.5 l 0,4.2 c 0,1.4 1.1,2.5 2.5,2.5 l 78.1,0 c 1.4,0 2.5,-1.1 2.5,-2.5 l 0,-4.2 c 0,-1.4 -1.1,-2.5 -2.5,-2.5 l -78.1,0 z" />
          </g>
          <g
             id="g309">
            <path
               style="fill:#ffffff"
               inkscape:connector-curvature="0"
               id="path311"
               d="m 603.6,776.2 c 0,2 -1.6,3.6 -3.6,3.6 l -78.1,0 c -2,0 -3.6,-1.6 -3.6,-3.6 l 0,-4.2 c 0,-2 1.6,-3.6 3.6,-3.6 l 78.1,0 c 2,0 3.6,1.6 3.6,3.6 l 0,4.2 z" />
            <path
               style="fill:#231f20"
               inkscape:connector-curvature="0"
               id="path313"
               d="m 600,780.9 -78.1,0 c -2.6,0 -4.7,-2.1 -4.7,-4.7 l 0,-4.2 c 0,-2.6 2.1,-4.7 4.7,-4.7 l 78.1,0 c 2.6,0 4.7,2.1 4.7,4.7 l 0,4.2 c 0,2.6 -2.1,4.7 -4.7,4.7 z m -78.1,-11.4 c -1.4,0 -2.5,1.1 -2.5,2.5 l 0,4.2 c 0,1.4 1.1,2.5 2.5,2.5 l 78.1,0 c 1.4,0 2.5,-1.1 2.5,-2.5 l 0,-4.2 c 0,-1.4 -1.1,-2.5 -2.5,-2.5 l -78.1,0 z" />
          </g>
        </g>
        <g
           id="g315">
          <path
             style="fill:#ffffff"
             inkscape:connector-curvature="0"
             id="path317"
             d="m 548.8,709.3 c -3,0 -5.3,-1.1 -7,-3.5 -0.6,-0.7 -1.4,-1.2 -2.3,-1.3 0,0 -0.2,0 -0.2,0 -0.3,0 -0.7,0.1 -1,0.2 0,0 -2.5,0.8 -5.6,0.8 -3.9,0 -7.2,-1.2 -9.6,-3.4 -5.8,-5.5 -3,-10.3 -2,-11.6 0.7,-1 0.8,-2.3 0.3,-3.3 -0.5,-0.9 -1.3,-1.6 -2.4,-1.7 -0.2,0 -6.1,-1.1 -7.6,-8.2 -1.4,-6.5 2,-8.2 2.1,-8.2 1.2,-0.5 1.9,-1.7 1.9,-2.9 0,-1.3 -0.8,-2.4 -1.9,-2.9 -2.3,-1 -3.9,-4.1 -4.5,-6.4 -1.5,-5.5 1.2,-11.4 6.1,-13.6 0.6,-0.2 1,-0.6 1.4,-1.1 l 0.5,-0.7 c 0.6,-0.9 0.7,-2 0.3,-3 -0.8,-1.8 -0.7,-4 0.3,-6.5 1.4,-3.8 4.6,-5.7 9.5,-5.7 1.7,0 3,0.3 3,0.3 0.2,0 0.4,0.1 0.7,0.1 1.5,0 2.7,-1 3.1,-2.4 1,-4 4.4,-7.1 9,-8.2 0.7,-0.2 1.4,-0.3 2.1,-0.3 3.6,0 6.8,2.1 8.3,3.2 l 0,89.9 c -1.3,0 -2.8,0.4 -4.5,0.4 z" />
          <path
             style="fill:#231f20"
             inkscape:connector-curvature="0"
             id="path319"
             d="m 548.8,713.6 c -1.5,0 -3.1,-0.2 -4.7,-0.8 -3.6,-1.4 -6.3,-4.3 -8.1,-8.8 -0.2,-0.6 0.1,-1.2 0.6,-1.4 0.6,-0.2 1.2,0.1 1.4,0.6 1.5,3.9 3.8,6.5 6.8,7.6 4.3,1.6 8.9,0 10.5,-0.7 l 0,-92.3 c -1.4,-1.2 -6.9,-5.4 -13,-3.9 -7.5,1.8 -12,8.2 -10.6,15.2 0.1,0.6 -0.3,1.2 -0.8,1.3 -0.6,0.1 -1.2,-0.3 -1.3,-0.8 -1.6,-8.2 3.5,-15.6 12.2,-17.7 8.2,-2 15.1,4.5 15.3,4.8 l 0.3,0.3 0,94.6 -0.6,0.3 c -0.1,-0.1 -3.7,1.7 -8,1.7 z" />
          <path
             style="fill:#231f20"
             inkscape:connector-curvature="0"
             id="path321"
             d="m 519,645.7 c -0.1,0 -0.3,0 -0.4,-0.1 -0.1,0 -9.2,-4.3 -5.2,-15.3 4.1,-10.9 17.4,-8.1 17.5,-8.1 0.6,0.1 1,0.7 0.8,1.3 -0.1,0.6 -0.7,1 -1.3,0.8 -0.5,-0.1 -11.6,-2.4 -15,6.7 -3.4,9.1 3.7,12.4 4,12.6 0.5,0.3 0.8,0.9 0.5,1.4 -0.1,0.4 -0.5,0.7 -0.9,0.7 z" />
          <path
             style="fill:#231f20"
             inkscape:connector-curvature="0"
             id="path323"
             d="m 532.6,709.7 c -3.8,0 -8.6,-0.9 -12.5,-4.6 -4.4,-4.1 -5.1,-8.3 -4.8,-11 0.3,-3.5 2.1,-6.8 5,-8.8 0.5,-0.3 1.2,-0.2 1.5,0.3 0.3,0.5 0.2,1.2 -0.3,1.5 -2.3,1.6 -3.8,4.3 -4.1,7.2 -0.2,3.3 1.2,6.5 4.2,9.3 6.8,6.4 17.2,3.1 17.3,3.1 0.6,-0.2 1.2,0.1 1.4,0.7 0.2,0.6 -0.1,1.2 -0.7,1.4 -0.3,0 -3.2,0.9 -7,0.9 z" />
          <path
             style="fill:#231f20"
             inkscape:connector-curvature="0"
             id="path325"
             d="m 515,667.7 c -5.4,0 -8.8,-5.2 -10.1,-9.9 -2.1,-7.7 2,-16.2 9.2,-18.9 0.6,-0.2 1.2,0.1 1.4,0.6 0.2,0.6 -0.1,1.2 -0.6,1.4 -6.2,2.3 -9.7,9.6 -7.8,16.3 1.2,4.3 4.3,9 9.2,8.2 0.6,-0.1 1.1,0.3 1.2,0.9 0.1,0.6 -0.3,1.1 -0.9,1.2 -0.6,0.1 -1.1,0.2 -1.6,0.2 z" />
          <path
             style="fill:#231f20"
             inkscape:connector-curvature="0"
             id="path327"
             d="m 518.5,689.6 c -0.1,0 -0.1,0 -0.2,0 -0.1,0 -9,-1.5 -11.1,-11.5 -2.2,-10.1 4.6,-13 4.6,-13.1 0.6,-0.2 1.2,0 1.4,0.6 0.2,0.6 0,1.2 -0.6,1.4 -0.2,0.1 -5.1,2.3 -3.3,10.6 1.8,8.5 9,9.8 9.3,9.8 0.6,0.1 1,0.7 0.9,1.2 0,0.6 -0.5,1 -1,1 z" />
          <path
             style="fill:#231f20"
             inkscape:connector-curvature="0"
             id="path329"
             d="m 540.6,665.8 c -0.6,0 -1.1,-0.5 -1.1,-1.1 0,-7 -3,-11 -8.9,-12.1 -4,-0.7 -8.2,2 -9.6,6.1 -0.2,0.6 -0.8,0.9 -1.4,0.7 -0.6,-0.2 -0.9,-0.8 -0.7,-1.4 1.7,-5.1 7,-8.4 12,-7.5 4.9,0.9 10.7,4 10.7,14.2 0.1,0.6 -0.4,1.1 -1,1.1 z" />
          <path
             style="fill:#231f20"
             inkscape:connector-curvature="0"
             id="path331"
             d="m 537.2,654.9 c -0.5,0 -1,-0.4 -1.1,-0.9 -0.3,-2.3 0.4,-7.2 5.6,-9.5 6.5,-2.9 9.7,1.1 9.9,1.3 0.4,0.5 0.3,1.2 -0.2,1.5 -0.5,0.4 -1.2,0.3 -1.5,-0.2 -0.1,-0.1 -2.4,-2.9 -7.3,-0.7 -5,2.2 -4.4,7.1 -4.3,7.2 0.1,0.6 -0.3,1.1 -0.9,1.2 -0.1,0.1 -0.2,0.1 -0.2,0.1 z" />
          <path
             style="fill:#231f20"
             inkscape:connector-curvature="0"
             id="path333"
             d="m 547.1,696.1 c -0.1,0 -0.2,0 -0.3,0 -0.6,-0.1 -0.9,-0.7 -0.8,-1.3 0.1,-0.4 2.2,-9.3 -4.9,-12.5 -7.2,-3.2 -11.3,3.1 -11.5,3.3 -0.3,0.5 -1,0.6 -1.5,0.3 -0.5,-0.3 -0.6,-1 -0.3,-1.5 0.1,-0.1 5.4,-8 14.2,-4.1 8.8,3.9 6.2,14.9 6.1,15 -0.1,0.4 -0.5,0.8 -1,0.8 z" />
        </g>
        <g
           id="g335">
          <path
             style="fill:#ffffff"
             inkscape:connector-curvature="0"
             id="path337"
             d="m 574.3,709.3 c 3,0 5.3,-1.1 7,-3.5 0.6,-0.7 1.4,-1.2 2.3,-1.3 0,0 0.2,0 0.2,0 0.3,0 0.7,0.1 1,0.2 0,0 2.5,0.8 5.6,0.8 3.9,0 7.2,-1.2 9.6,-3.4 5.8,-5.5 3,-10.3 2,-11.6 -0.7,-1 -0.8,-2.3 -0.3,-3.3 0.5,-0.9 1.3,-1.6 2.4,-1.7 0.2,0 6.1,-1.1 7.6,-8.2 1.4,-6.5 -2,-8.2 -2.1,-8.2 -1.2,-0.5 -1.9,-1.7 -1.9,-2.9 0,-1.3 0.8,-2.4 1.9,-2.9 2.3,-1 3.9,-4.1 4.5,-6.4 1.5,-5.5 -1.2,-11.4 -6.1,-13.6 -0.6,-0.2 -1,-0.6 -1.4,-1.1 l -0.5,-0.7 c -0.6,-0.9 -0.7,-2 -0.3,-3 0.8,-1.8 0.7,-4 -0.3,-6.5 -1.4,-3.8 -4.6,-5.7 -9.5,-5.7 -1.7,0 -3,0.3 -3,0.3 -0.2,0 -0.4,0.1 -0.7,0.1 -1.5,0 -2.7,-1 -3.1,-2.4 -1,-4 -4.4,-7.1 -9,-8.2 -0.7,-0.2 -1.4,-0.3 -2.1,-0.3 -3.6,0 -6.8,2.1 -8.3,3.2 l 0,89.9 c 1.2,0 2.8,0.4 4.5,0.4 z" />
          <path
             style="fill:#231f20"
             inkscape:connector-curvature="0"
             id="path339"
             d="m 574.3,713.6 c -4.3,0 -7.9,-1.8 -8.1,-1.9 l -0.6,-0.3 0,-94.6 0.3,-0.3 c 0.3,-0.3 7.2,-6.8 15.3,-4.8 8.7,2.1 13.9,9.6 12.2,17.7 -0.1,0.6 -0.7,1 -1.3,0.8 -0.6,-0.1 -1,-0.7 -0.8,-1.3 1.4,-7 -3.1,-13.4 -10.6,-15.2 -6.1,-1.5 -11.6,2.8 -13,3.9 l 0,92.4 c 1.6,0.7 6.2,2.3 10.5,0.7 3,-1.1 5.3,-3.7 6.8,-7.6 0.2,-0.6 0.8,-0.8 1.4,-0.6 0.6,0.2 0.8,0.8 0.6,1.4 -1.8,4.5 -4.5,7.5 -8.1,8.8 -1.4,0.7 -3.1,0.9 -4.6,0.9 z" />
          <path
             style="fill:#231f20"
             inkscape:connector-curvature="0"
             id="path341"
             d="m 604,645.7 c -0.4,0 -0.8,-0.2 -1,-0.6 -0.2,-0.5 0,-1.2 0.5,-1.4 0.3,-0.1 7.4,-3.5 4,-12.6 -3.4,-9.2 -14.9,-6.7 -15,-6.7 -0.6,0.1 -1.2,-0.2 -1.3,-0.8 -0.1,-0.6 0.2,-1.2 0.8,-1.3 0.1,0 13.4,-2.8 17.5,8.1 4.1,11 -5.1,15.3 -5.2,15.3 0,-0.1 -0.1,0 -0.3,0 z" />
          <path
             style="fill:#231f20"
             inkscape:connector-curvature="0"
             id="path343"
             d="m 590.5,709.7 c -3.8,0 -6.8,-0.9 -7,-1 -0.6,-0.2 -0.9,-0.8 -0.7,-1.4 0.2,-0.6 0.8,-0.9 1.4,-0.7 0.1,0 10.5,3.3 17.3,-3.1 3,-2.8 4.4,-6 4.2,-9.3 -0.2,-2.8 -1.8,-5.6 -4.1,-7.2 -0.5,-0.3 -0.6,-1 -0.3,-1.5 0.3,-0.5 1,-0.6 1.5,-0.3 2.9,2 4.7,5.3 5,8.8 0.2,2.7 -0.5,6.9 -4.8,11 -3.9,3.8 -8.6,4.7 -12.5,4.7 z" />
          <path
             style="fill:#231f20"
             inkscape:connector-curvature="0"
             id="path345"
             d="m 608.1,667.7 c -0.5,0 -1,0 -1.5,-0.1 -0.6,-0.1 -1,-0.7 -0.9,-1.2 0.1,-0.6 0.6,-1 1.2,-0.9 4.9,0.8 8,-3.9 9.2,-8.2 1.8,-6.7 -1.7,-14 -7.8,-16.3 -0.6,-0.2 -0.8,-0.8 -0.6,-1.4 0.2,-0.6 0.8,-0.8 1.4,-0.6 7.2,2.7 11.3,11.1 9.2,18.9 -1.4,4.6 -4.8,9.8 -10.2,9.8 z" />
          <path
             style="fill:#231f20"
             inkscape:connector-curvature="0"
             id="path347"
             d="m 604.6,689.6 c -0.5,0 -1,-0.4 -1.1,-0.9 -0.1,-0.6 0.3,-1.1 0.9,-1.2 0.3,-0.1 7.5,-1.3 9.3,-9.8 1.8,-8.4 -3.3,-10.6 -3.3,-10.6 -0.6,-0.2 -0.8,-0.9 -0.6,-1.4 0.2,-0.6 0.9,-0.8 1.4,-0.6 0.1,0 6.8,2.9 4.6,13.1 -2.1,10 -11,11.5 -11.1,11.5 0,-0.1 0,-0.1 -0.1,-0.1 z" />
          <path
             style="fill:#231f20"
             inkscape:connector-curvature="0"
             id="path349"
             d="m 582.5,665.8 c -0.6,0 -1.1,-0.5 -1.1,-1.1 0,-10.2 5.8,-13.4 10.7,-14.2 5.1,-0.9 10.3,2.4 12,7.5 0.2,0.6 -0.1,1.2 -0.7,1.4 -0.6,0.2 -1.2,-0.1 -1.4,-0.7 -1.4,-4.1 -5.6,-6.8 -9.6,-6.1 -5.9,1 -8.9,5.1 -8.9,12.1 0,0.6 -0.4,1.1 -1,1.1 z" />
          <path
             style="fill:#231f20"
             inkscape:connector-curvature="0"
             id="path351"
             d="m 585.9,654.9 c -0.1,0 -0.1,0 -0.2,0 -0.6,-0.1 -1,-0.6 -0.9,-1.2 l 0,0 c 0,-0.2 0.6,-5 -4.3,-7.2 -4.9,-2.2 -7.2,0.6 -7.3,0.7 -0.4,0.5 -1.1,0.5 -1.5,0.2 -0.5,-0.4 -0.5,-1 -0.2,-1.5 0.1,-0.2 3.4,-4.2 9.9,-1.3 5.2,2.3 5.9,7.2 5.6,9.5 -0.1,0.4 -0.6,0.8 -1.1,0.8 z" />
          <path
             style="fill:#231f20"
             inkscape:connector-curvature="0"
             id="path353"
             d="m 576,696.1 c -0.5,0 -0.9,-0.3 -1,-0.8 0,-0.1 -2.7,-11.1 6.1,-15 8.8,-3.9 14.1,4.1 14.2,4.1 0.3,0.5 0.2,1.2 -0.3,1.5 -0.5,0.3 -1.2,0.2 -1.5,-0.3 l 0,0 c -0.2,-0.3 -4.4,-6.5 -11.5,-3.3 -7.2,3.2 -4.9,12.4 -4.9,12.5 0.1,0.6 -0.2,1.2 -0.8,1.3 -0.2,0 -0.2,0 -0.3,0 z" />
        </g>
      </g>
      <g
         id="g355">
        <path
           style="fill:#ffffff"
           inkscape:connector-curvature="0"
           id="path357"
           d="m 498.4,636.3 c -0.1,0 -0.1,0 -0.2,0 -0.6,-0.1 -1,-0.7 -0.9,-1.3 4.5,-24.3 29.3,-34.8 50.9,-36.6 0.6,0 1.1,0.4 1.2,1 0,0.6 -0.4,1.1 -1,1.2 -10.1,0.8 -43.5,5.7 -48.9,34.8 -0.2,0.5 -0.6,0.9 -1.1,0.9 z" />
        <path
           style="fill:#ffffff"
           inkscape:connector-curvature="0"
           id="path359"
           d="m 496.4,660.2 c -0.6,0 -1,-0.4 -1.1,-1 -0.4,-5.8 0,-10.4 0,-10.6 0,-0.6 0.5,-1 1.2,-1 0.6,0 1,0.6 1,1.2 0,0 -0.4,4.7 0,10.3 0,0.5 -0.4,1.1 -1.1,1.1 0.1,0 0.1,0 0,0 z" />
      </g>
      <g
         id="g361">
        <path
           style="fill:#231f20"
           inkscape:connector-curvature="0"
           id="path363"
           d="m 561.5,562.7 c -0.6,0 -1.1,-0.5 -1.1,-1.1 l 0,-12 c 0,-0.6 0.5,-1.1 1.1,-1.1 0.6,0 1.1,0.5 1.1,1.1 l 0,12 c 0,0.6 -0.5,1.1 -1.1,1.1 z" />
        <path
           style="fill:#231f20"
           inkscape:connector-curvature="0"
           id="path365"
           d="m 531.5,567.2 c -0.5,0 -0.9,-0.3 -1,-0.8 l -3.7,-11.5 c -0.2,-0.6 0.1,-1.2 0.7,-1.4 0.6,-0.2 1.2,0.1 1.4,0.7 l 3.7,11.5 c 0.2,0.6 -0.1,1.2 -0.7,1.4 -0.2,0.1 -0.3,0.1 -0.4,0.1 z" />
        <path
           style="fill:#231f20"
           inkscape:connector-curvature="0"
           id="path367"
           d="m 504.3,580.8 c -0.3,0 -0.7,-0.2 -0.9,-0.4 l -7.1,-9.8 c -0.4,-0.5 -0.2,-1.2 0.2,-1.5 0.5,-0.4 1.2,-0.2 1.5,0.2 l 7.1,9.8 c 0.4,0.5 0.2,1.2 -0.2,1.5 -0.1,0.2 -0.4,0.2 -0.6,0.2 z" />
        <path
           style="fill:#231f20"
           inkscape:connector-curvature="0"
           id="path369"
           d="m 482.6,602.1 c -0.2,0 -0.4,-0.1 -0.6,-0.2 l -9.7,-7.1 c -0.5,-0.4 -0.6,-1 -0.2,-1.5 0.4,-0.5 1,-0.6 1.5,-0.2 l 9.7,7.1 c 0.5,0.4 0.6,1 0.2,1.5 -0.2,0.2 -0.5,0.4 -0.9,0.4 z" />
        <path
           style="fill:#231f20"
           inkscape:connector-curvature="0"
           id="path371"
           d="m 468.6,629 c -0.1,0 -0.2,0 -0.3,-0.1 l -11.4,-3.8 c -0.6,-0.2 -0.9,-0.8 -0.7,-1.4 0.2,-0.6 0.8,-0.9 1.4,-0.7 l 11.4,3.8 c 0.6,0.2 0.9,0.8 0.7,1.4 -0.3,0.5 -0.7,0.8 -1.1,0.8 z" />
        <path
           style="fill:#231f20"
           inkscape:connector-curvature="0"
           id="path373"
           d="m 463.4,659 c 0,0 0,0 0,0 l -12.1,-0.1 c -0.6,0 -1.1,-0.5 -1.1,-1.1 0,-0.6 0.5,-1.1 1.1,-1.1 0,0 0,0 0,0 l 12,0.1 c 0.6,0 1.1,0.5 1.1,1.1 0.1,0.6 -0.4,1.1 -1,1.1 z" />
        <path
           style="fill:#231f20"
           inkscape:connector-curvature="0"
           id="path375"
           d="m 456.3,692.7 c -0.5,0 -0.9,-0.3 -1,-0.8 -0.2,-0.6 0.1,-1.2 0.7,-1.4 l 11.5,-3.6 c 0.6,-0.2 1.2,0.1 1.4,0.7 0.2,0.6 -0.1,1.2 -0.7,1.4 l -11.5,3.6 c -0.2,0.1 -0.3,0.1 -0.4,0.1 z" />
        <path
           style="fill:#231f20"
           inkscape:connector-curvature="0"
           id="path377"
           d="m 471.4,723.3 c -0.3,0 -0.7,-0.2 -0.9,-0.5 -0.3,-0.5 -0.2,-1.2 0.3,-1.5 l 9.8,-7 c 0.5,-0.3 1.2,-0.2 1.5,0.3 0.3,0.5 0.2,1.2 -0.3,1.5 l -9.8,7 c -0.2,0.1 -0.4,0.2 -0.6,0.2 z" />
        <path
           style="fill:#231f20"
           inkscape:connector-curvature="0"
           id="path379"
           d="m 495.2,747.8 c -0.2,0 -0.5,-0.1 -0.6,-0.2 -0.5,-0.4 -0.6,-1 -0.2,-1.5 l 7.2,-9.7 c 0.4,-0.5 1,-0.6 1.5,-0.2 0.5,0.4 0.6,1 0.2,1.5 l -7.2,9.7 c -0.3,0.3 -0.6,0.4 -0.9,0.4 z" />
        <path
           style="fill:#231f20"
           inkscape:connector-curvature="0"
           id="path381"
           d="m 595.4,567.2 c -0.1,0 -0.2,0 -0.3,-0.1 -0.6,-0.2 -0.9,-0.8 -0.7,-1.4 l 3.7,-11.5 c 0.2,-0.6 0.8,-0.9 1.4,-0.7 0.6,0.2 0.9,0.8 0.7,1.4 l -3.7,11.5 c -0.2,0.5 -0.6,0.8 -1.1,0.8 z" />
        <path
           style="fill:#231f20"
           inkscape:connector-curvature="0"
           id="path383"
           d="m 622.6,580.8 c -0.2,0 -0.4,-0.1 -0.6,-0.2 -0.5,-0.4 -0.6,-1 -0.2,-1.5 l 7.1,-9.8 c 0.3,-0.5 1,-0.6 1.5,-0.2 0.5,0.4 0.6,1 0.2,1.5 l -7.1,9.8 c -0.2,0.3 -0.5,0.4 -0.9,0.4 z" />
        <path
           style="fill:#231f20"
           inkscape:connector-curvature="0"
           id="path385"
           d="m 644.3,602.1 c -0.3,0 -0.7,-0.2 -0.9,-0.4 -0.4,-0.5 -0.2,-1.2 0.2,-1.5 l 9.7,-7.1 c 0.5,-0.4 1.2,-0.2 1.5,0.2 0.4,0.5 0.2,1.2 -0.2,1.5 l -9.7,7.1 c -0.1,0.1 -0.4,0.2 -0.6,0.2 z" />
        <path
           style="fill:#231f20"
           inkscape:connector-curvature="0"
           id="path387"
           d="m 658.4,629 c -0.5,0 -0.9,-0.3 -1,-0.7 -0.2,-0.6 0.1,-1.2 0.7,-1.4 l 11.4,-3.8 c 0.6,-0.2 1.2,0.1 1.4,0.7 0.2,0.6 -0.1,1.2 -0.7,1.4 l -11.4,3.8 c -0.2,0 -0.3,0 -0.4,0 z" />
        <path
           style="fill:#231f20"
           inkscape:connector-curvature="0"
           id="path389"
           d="m 663.5,659 c -0.6,0 -1.1,-0.5 -1.1,-1.1 0,-0.6 0.5,-1.1 1.1,-1.1 l 12,-0.1 c 0,0 0,0 0,0 0.6,0 1.1,0.5 1.1,1.1 0,0.6 -0.5,1.1 -1.1,1.1 l -12,0.1 c 0,0 0,0 0,0 z" />
        <path
           style="fill:#231f20"
           inkscape:connector-curvature="0"
           id="path391"
           d="m 670.6,692.7 c -0.1,0 -0.2,0 -0.3,-0.1 L 658.8,689 c -0.6,-0.2 -0.9,-0.8 -0.7,-1.4 0.2,-0.6 0.8,-0.9 1.4,-0.7 l 11.5,3.6 c 0.6,0.2 0.9,0.8 0.7,1.4 -0.2,0.5 -0.6,0.8 -1.1,0.8 z" />
        <path
           style="fill:#231f20"
           inkscape:connector-curvature="0"
           id="path393"
           d="m 655.6,723.3 c -0.2,0 -0.4,-0.1 -0.6,-0.2 l -9.8,-7 c -0.5,-0.3 -0.6,-1 -0.3,-1.5 0.3,-0.5 1,-0.6 1.5,-0.3 l 9.8,7 c 0.5,0.3 0.6,1 0.3,1.5 -0.3,0.3 -0.6,0.5 -0.9,0.5 z" />
        <path
           style="fill:#231f20"
           inkscape:connector-curvature="0"
           id="path395"
           d="m 631.8,747.8 c -0.3,0 -0.7,-0.2 -0.9,-0.4 l -7.2,-9.7 c -0.4,-0.5 -0.3,-1.2 0.2,-1.5 0.5,-0.4 1.2,-0.3 1.5,0.2 l 7.2,9.7 c 0.4,0.5 0.3,1.2 -0.2,1.5 -0.2,0.1 -0.4,0.2 -0.6,0.2 z" />
      </g>
    </g>
  </g>
</svg>
